<svg width="1203" height="1078" viewBox="0 0 1203 1078" fill="none" xmlns="http://www.w3.org/2000/svg">
<path d="M6.645 129.952C14.9373 206.241 49.765 367.941 181.613 500.618C195.71 514.715 200.685 535.446 192.392 552.859C189.905 557.835 186.588 562.81 182.441 566.956C182.441 566.956 -1.64732 752.704 0.0111389 948.399C0.0111389 984.056 15.7666 1018.88 44.7896 1039.61C63.8619 1053.71 90.3969 1062.83 124.395 1053.71C165.028 1042.93 195.709 1009.76 207.318 968.3C231.366 877.914 307.655 669.781 495.061 650.709C495.061 650.709 714.807 617.539 806.023 843.916C806.023 843.916 833.385 915.23 847.482 960.008C859.091 994.836 883.139 1025.52 916.308 1043.76C947.818 1061.17 988.451 1066.98 1025.77 1023.86C1053.13 993.177 1063.08 950.057 1056.45 909.425C1043.18 832.307 1003.38 683.049 891.431 557.835C874.846 539.592 874.017 512.227 889.772 493.155C951.965 417.695 1087.96 231.118 1053.13 81.8563C1034.89 2.25019 933.722 -28.4313 877.334 31.2733C875.676 33.4846 874.017 35.4194 872.359 37.0779C855.774 56.9794 845.823 81.0271 840.848 105.904C828.413 169.755 773.683 373.746 577.155 402.769C577.155 402.769 400.53 426.816 330.875 330.626C330.875 330.626 254.584 245.215 208.148 91.8074C196.538 52.8332 166.686 19.664 126.883 8.05479C98.6892 -0.237508 66.3495 1.42096 37.3265 32.1025C12.4496 58.6379 2.49885 94.2951 6.645 129.952Z" fill="url(#paint0_linear_405_211)"/>
<path d="M1131.9 937.031C1122.64 937.031 1113.48 938.854 1104.93 942.397C1096.37 945.939 1088.6 951.131 1082.06 957.676C1068.84 970.894 1061.41 988.822 1061.41 1007.52C1061.41 1026.21 1068.84 1044.14 1082.06 1057.36C1088.6 1063.9 1096.37 1069.09 1104.93 1072.64C1113.48 1076.18 1122.64 1078 1131.9 1078C1150.59 1078 1168.52 1070.57 1181.74 1057.36C1194.96 1044.14 1202.38 1026.21 1202.38 1007.52C1202.38 998.26 1200.56 989.094 1197.02 980.543C1193.48 971.991 1188.28 964.221 1181.74 957.676C1175.19 951.131 1167.42 945.939 1158.87 942.397C1150.32 938.854 1141.16 937.031 1131.9 937.031ZM1131.9 1063.9C1100.82 1063.9 1075.51 1038.6 1075.51 1007.52C1075.51 976.432 1100.82 951.128 1131.9 951.128C1162.98 951.128 1188.29 976.432 1188.29 1007.52C1188.29 1038.6 1162.98 1063.9 1131.9 1063.9ZM1133.66 1016.47H1123.51V1039.23H1110.75V977.278H1133.73C1140.99 977.278 1146.63 978.899 1150.65 982.141C1154.6 985.454 1156.57 989.895 1156.57 995.956C1156.57 1000.19 1155.65 1003.71 1153.82 1006.53C1151.99 1009.35 1149.24 1011.6 1145.5 1013.23L1158.89 1038.53V1039.23H1145.22L1133.66 1016.47ZM1123.51 1006.18H1133.8C1136.97 1006.18 1139.44 1005.33 1141.2 1003.71C1142.97 1002.09 1143.81 999.833 1143.81 996.943C1143.81 994.053 1143.04 991.798 1141.34 990.106C1139.72 988.415 1137.19 987.639 1133.73 987.639H1123.51V1006.18Z" fill="#519CE6"/>
<defs>
<linearGradient id="paint0_linear_405_211" x1="953.615" y1="5.43409e-06" x2="953.615" y2="862.399" gradientUnits="userSpaceOnUse">
<stop stop-color="#FF00FF"/>
<stop offset="1" stop-color="#519CE6"/>
</linearGradient>
</defs>
</svg>
